<?xml version="1.0" encoding="UTF-8" standalone="no"?><svg xmlns="http://www.w3.org/2000/svg" xmlns:xlink="http://www.w3.org/1999/xlink" contentScriptType="application/ecmascript" contentStyleType="text/css" height="213px" preserveAspectRatio="none" style="width:2292px;height:213px;" version="1.1" viewBox="0 0 2292 213" width="2292px" zoomAndPan="magnify"><defs><filter height="300%" id="f62myl64ewphq" width="300%" x="-1" y="-1"><feGaussianBlur result="blurOut" stdDeviation="2.0"/><feColorMatrix in="blurOut" result="blurOut2" type="matrix" values="0 0 0 0 0 0 0 0 0 0 0 0 0 0 0 0 0 0 .4 0"/><feOffset dx="4.0" dy="4.0" in="blurOut2" result="blurOut3"/><feBlend in="SourceGraphic" in2="blurOut3" mode="normal"/></filter></defs><g><!--MD5=[10ea673caf457862023e152271927b45]
cluster controller--><polygon fill="#FFFFFF" filter="url(#f62myl64ewphq)" points="22,24,96,24,103,49.0679,2270,49.0679,2270,201,22,201,22,24" style="stroke: #000000; stroke-width: 1.5;"/><line style="stroke: #000000; stroke-width: 1.5;" x1="22" x2="103" y1="49.0679" y2="49.0679"/><text fill="#000000" font-family="sans-serif" font-size="14" font-weight="bold" lengthAdjust="spacingAndGlyphs" textLength="68" x="26" y="40.9659">controller</text><!--MD5=[9878be2e161685c2af42b541dee0842e]
class AuthController--><rect fill="#FEFECE" filter="url(#f62myl64ewphq)" height="77.9638" id="AuthController" style="stroke: #A80036; stroke-width: 1.5;" width="114" x="1941" y="84.5"/><ellipse cx="1956" cy="100.5" fill="#ADD1B2" rx="11" ry="11" style="stroke: #A80036; stroke-width: 1.0;"/><path d="M1958.9688,106.1406 Q1958.3906,106.4375 1957.75,106.5781 Q1957.1094,106.7344 1956.4063,106.7344 Q1953.9063,106.7344 1952.5781,105.0938 Q1951.2656,103.4375 1951.2656,100.3125 Q1951.2656,97.1875 1952.5781,95.5313 Q1953.9063,93.875 1956.4063,93.875 Q1957.1094,93.875 1957.75,94.0313 Q1958.4063,94.1875 1958.9688,94.4844 L1958.9688,97.2031 Q1958.3438,96.625 1957.75,96.3594 Q1957.1563,96.0781 1956.5313,96.0781 Q1955.1875,96.0781 1954.5,97.1563 Q1953.8125,98.2188 1953.8125,100.3125 Q1953.8125,102.4063 1954.5,103.4844 Q1955.1875,104.5469 1956.5313,104.5469 Q1957.1563,104.5469 1957.75,104.2813 Q1958.3438,104 1958.9688,103.4219 L1958.9688,106.1406 Z "/><text fill="#000000" font-family="sans-serif" font-size="12" lengthAdjust="spacingAndGlyphs" textLength="82" x="1970" y="105.156">AuthController</text><line style="stroke: #A80036; stroke-width: 1.5;" x1="1942" x2="2054" y1="116.5" y2="116.5"/><line style="stroke: #A80036; stroke-width: 1.5;" x1="1942" x2="2054" y1="124.5" y2="124.5"/><ellipse cx="1952" cy="135.5" fill="#84BE84" rx="3" ry="3" style="stroke: #038048; stroke-width: 1.0;"/><text fill="#000000" font-family="sans-serif" font-size="11" lengthAdjust="spacingAndGlyphs" textLength="47" x="1961" y="140.2589">register()</text><ellipse cx="1952" cy="150.4819" fill="#84BE84" rx="3" ry="3" style="stroke: #038048; stroke-width: 1.0;"/><text fill="#000000" font-family="sans-serif" font-size="11" lengthAdjust="spacingAndGlyphs" textLength="33" x="1961" y="155.2408">login()</text><!--MD5=[29f97d496cbdc4ec81664c6d94dc9bf6]
class UserController--><rect fill="#FEFECE" filter="url(#f62myl64ewphq)" height="92.9457" id="UserController" style="stroke: #A80036; stroke-width: 1.5;" width="115" x="1601.5" y="77"/><ellipse cx="1616.5" cy="93" fill="#ADD1B2" rx="11" ry="11" style="stroke: #A80036; stroke-width: 1.0;"/><path d="M1619.4688,98.6406 Q1618.8906,98.9375 1618.25,99.0781 Q1617.6094,99.2344 1616.9063,99.2344 Q1614.4063,99.2344 1613.0781,97.5938 Q1611.7656,95.9375 1611.7656,92.8125 Q1611.7656,89.6875 1613.0781,88.0313 Q1614.4063,86.375 1616.9063,86.375 Q1617.6094,86.375 1618.25,86.5313 Q1618.9063,86.6875 1619.4688,86.9844 L1619.4688,89.7031 Q1618.8438,89.125 1618.25,88.8594 Q1617.6563,88.5781 1617.0313,88.5781 Q1615.6875,88.5781 1615,89.6563 Q1614.3125,90.7188 1614.3125,92.8125 Q1614.3125,94.9063 1615,95.9844 Q1615.6875,97.0469 1617.0313,97.0469 Q1617.6563,97.0469 1618.25,96.7813 Q1618.8438,96.5 1619.4688,95.9219 L1619.4688,98.6406 Z "/><text fill="#000000" font-family="sans-serif" font-size="12" lengthAdjust="spacingAndGlyphs" textLength="83" x="1630.5" y="97.656">UserController</text><line style="stroke: #A80036; stroke-width: 1.5;" x1="1602.5" x2="1715.5" y1="109" y2="109"/><line style="stroke: #A80036; stroke-width: 1.5;" x1="1602.5" x2="1715.5" y1="117" y2="117"/><ellipse cx="1612.5" cy="128" fill="#84BE84" rx="3" ry="3" style="stroke: #038048; stroke-width: 1.0;"/><text fill="#000000" font-family="sans-serif" font-size="11" lengthAdjust="spacingAndGlyphs" textLength="71" x="1621.5" y="132.7589">getUserById()</text><ellipse cx="1612.5" cy="142.9819" fill="#84BE84" rx="3" ry="3" style="stroke: #038048; stroke-width: 1.0;"/><text fill="#000000" font-family="sans-serif" font-size="11" lengthAdjust="spacingAndGlyphs" textLength="67" x="1621.5" y="147.7408">updateUser()</text><ellipse cx="1612.5" cy="157.9638" fill="#84BE84" rx="3" ry="3" style="stroke: #038048; stroke-width: 1.0;"/><text fill="#000000" font-family="sans-serif" font-size="11" lengthAdjust="spacingAndGlyphs" textLength="83" x="1621.5" y="162.7227">deactivateUser()</text><!--MD5=[91b737a0aa6758b352ed748d11ff2125]
class PlayerController--><rect fill="#FEFECE" filter="url(#f62myl64ewphq)" height="107.9276" id="PlayerController" style="stroke: #A80036; stroke-width: 1.5;" width="200" x="1043" y="69.5"/><ellipse cx="1093.25" cy="85.5" fill="#ADD1B2" rx="11" ry="11" style="stroke: #A80036; stroke-width: 1.0;"/><path d="M1096.2188,91.1406 Q1095.6406,91.4375 1095,91.5781 Q1094.3594,91.7344 1093.6563,91.7344 Q1091.1563,91.7344 1089.8281,90.0938 Q1088.5156,88.4375 1088.5156,85.3125 Q1088.5156,82.1875 1089.8281,80.5313 Q1091.1563,78.875 1093.6563,78.875 Q1094.3594,78.875 1095,79.0313 Q1095.6563,79.1875 1096.2188,79.4844 L1096.2188,82.2031 Q1095.5938,81.625 1095,81.3594 Q1094.4063,81.0781 1093.7813,81.0781 Q1092.4375,81.0781 1091.75,82.1563 Q1091.0625,83.2188 1091.0625,85.3125 Q1091.0625,87.4063 1091.75,88.4844 Q1092.4375,89.5469 1093.7813,89.5469 Q1094.4063,89.5469 1095,89.2813 Q1095.5938,89 1096.2188,88.4219 L1096.2188,91.1406 Z "/><text fill="#000000" font-family="sans-serif" font-size="12" lengthAdjust="spacingAndGlyphs" textLength="91" x="1113.75" y="90.156">PlayerController</text><line style="stroke: #A80036; stroke-width: 1.5;" x1="1044" x2="1242" y1="101.5" y2="101.5"/><line style="stroke: #A80036; stroke-width: 1.5;" x1="1044" x2="1242" y1="109.5" y2="109.5"/><ellipse cx="1054" cy="120.5" fill="#84BE84" rx="3" ry="3" style="stroke: #038048; stroke-width: 1.0;"/><text fill="#000000" font-family="sans-serif" font-size="11" lengthAdjust="spacingAndGlyphs" textLength="106" x="1063" y="125.2589">createPlayerProfile()</text><ellipse cx="1054" cy="135.4819" fill="#84BE84" rx="3" ry="3" style="stroke: #038048; stroke-width: 1.0;"/><text fill="#000000" font-family="sans-serif" font-size="11" lengthAdjust="spacingAndGlyphs" textLength="80" x="1063" y="140.2408">getPlayerById()</text><ellipse cx="1054" cy="150.4638" fill="#84BE84" rx="3" ry="3" style="stroke: #038048; stroke-width: 1.0;"/><text fill="#000000" font-family="sans-serif" font-size="11" lengthAdjust="spacingAndGlyphs" textLength="76" x="1063" y="155.2227">updatePlayer()</text><ellipse cx="1054" cy="165.4457" fill="#84BE84" rx="3" ry="3" style="stroke: #038048; stroke-width: 1.0;"/><text fill="#000000" font-family="sans-serif" font-size="11" lengthAdjust="spacingAndGlyphs" textLength="174" x="1063" y="170.2046">getPlayerMatchmakingRequests()</text><!--MD5=[6a982af3d82b753e5b9a7c01236eb755]
class MatchmakingRequestController--><rect fill="#FEFECE" filter="url(#f62myl64ewphq)" height="107.9276" id="MatchmakingRequestController" style="stroke: #A80036; stroke-width: 1.5;" width="209" x="480.5" y="69.5"/><ellipse cx="495.5" cy="85.5" fill="#ADD1B2" rx="11" ry="11" style="stroke: #A80036; stroke-width: 1.0;"/><path d="M498.4688,91.1406 Q497.8906,91.4375 497.25,91.5781 Q496.6094,91.7344 495.9063,91.7344 Q493.4063,91.7344 492.0781,90.0938 Q490.7656,88.4375 490.7656,85.3125 Q490.7656,82.1875 492.0781,80.5313 Q493.4063,78.875 495.9063,78.875 Q496.6094,78.875 497.25,79.0313 Q497.9063,79.1875 498.4688,79.4844 L498.4688,82.2031 Q497.8438,81.625 497.25,81.3594 Q496.6563,81.0781 496.0313,81.0781 Q494.6875,81.0781 494,82.1563 Q493.3125,83.2188 493.3125,85.3125 Q493.3125,87.4063 494,88.4844 Q494.6875,89.5469 496.0313,89.5469 Q496.6563,89.5469 497.25,89.2813 Q497.8438,89 498.4688,88.4219 L498.4688,91.1406 Z "/><text fill="#000000" font-family="sans-serif" font-size="12" lengthAdjust="spacingAndGlyphs" textLength="177" x="509.5" y="90.156">MatchmakingRequestController</text><line style="stroke: #A80036; stroke-width: 1.5;" x1="481.5" x2="688.5" y1="101.5" y2="101.5"/><line style="stroke: #A80036; stroke-width: 1.5;" x1="481.5" x2="688.5" y1="109.5" y2="109.5"/><ellipse cx="491.5" cy="120.5" fill="#84BE84" rx="3" ry="3" style="stroke: #038048; stroke-width: 1.0;"/><text fill="#000000" font-family="sans-serif" font-size="11" lengthAdjust="spacingAndGlyphs" textLength="151" x="500.5" y="125.2589">createMatchmakingRequest()</text><ellipse cx="491.5" cy="135.4819" fill="#84BE84" rx="3" ry="3" style="stroke: #038048; stroke-width: 1.0;"/><text fill="#000000" font-family="sans-serif" font-size="11" lengthAdjust="spacingAndGlyphs" textLength="160" x="500.5" y="140.2408">getMatchmakingRequestById()</text><ellipse cx="491.5" cy="150.4638" fill="#84BE84" rx="3" ry="3" style="stroke: #038048; stroke-width: 1.0;"/><text fill="#000000" font-family="sans-serif" font-size="11" lengthAdjust="spacingAndGlyphs" textLength="151" x="500.5" y="155.2227">cancelMatchmakingRequest()</text><ellipse cx="491.5" cy="165.4457" fill="#84BE84" rx="3" ry="3" style="stroke: #038048; stroke-width: 1.0;"/><text fill="#000000" font-family="sans-serif" font-size="11" lengthAdjust="spacingAndGlyphs" textLength="100" x="500.5" y="170.2046">getMatchedMatch()</text><!--MD5=[0b1488989fb46833bb9bef4ac76c7ae7]
class MatchController--><rect fill="#FEFECE" filter="url(#f62myl64ewphq)" height="122.9094" id="MatchController" style="stroke: #A80036; stroke-width: 1.5;" width="143" x="38.5" y="62"/><ellipse cx="62.5" cy="78" fill="#ADD1B2" rx="11" ry="11" style="stroke: #A80036; stroke-width: 1.0;"/><path d="M65.4688,83.6406 Q64.8906,83.9375 64.25,84.0781 Q63.6094,84.2344 62.9063,84.2344 Q60.4063,84.2344 59.0781,82.5938 Q57.7656,80.9375 57.7656,77.8125 Q57.7656,74.6875 59.0781,73.0313 Q60.4063,71.375 62.9063,71.375 Q63.6094,71.375 64.25,71.5313 Q64.9063,71.6875 65.4688,71.9844 L65.4688,74.7031 Q64.8438,74.125 64.25,73.8594 Q63.6563,73.5781 63.0313,73.5781 Q61.6875,73.5781 61,74.6563 Q60.3125,75.7188 60.3125,77.8125 Q60.3125,79.9063 61,80.9844 Q61.6875,82.0469 63.0313,82.0469 Q63.6563,82.0469 64.25,81.7813 Q64.8438,81.5 65.4688,80.9219 L65.4688,83.6406 Z "/><text fill="#000000" font-family="sans-serif" font-size="12" lengthAdjust="spacingAndGlyphs" textLength="91" x="78.5" y="82.656">MatchController</text><line style="stroke: #A80036; stroke-width: 1.5;" x1="39.5" x2="180.5" y1="94" y2="94"/><line style="stroke: #A80036; stroke-width: 1.5;" x1="39.5" x2="180.5" y1="102" y2="102"/><ellipse cx="49.5" cy="113" fill="#84BE84" rx="3" ry="3" style="stroke: #038048; stroke-width: 1.0;"/><text fill="#000000" font-family="sans-serif" font-size="11" lengthAdjust="spacingAndGlyphs" textLength="79" x="58.5" y="117.7589">getMatchById()</text><ellipse cx="49.5" cy="127.9819" fill="#84BE84" rx="3" ry="3" style="stroke: #038048; stroke-width: 1.0;"/><text fill="#000000" font-family="sans-serif" font-size="11" lengthAdjust="spacingAndGlyphs" textLength="79" x="58.5" y="132.7408">getAllMatches()</text><ellipse cx="49.5" cy="142.9638" fill="#84BE84" rx="3" ry="3" style="stroke: #038048; stroke-width: 1.0;"/><text fill="#000000" font-family="sans-serif" font-size="11" lengthAdjust="spacingAndGlyphs" textLength="117" x="58.5" y="147.7227">getMatchParticipants()</text><ellipse cx="49.5" cy="157.9457" fill="#84BE84" rx="3" ry="3" style="stroke: #038048; stroke-width: 1.0;"/><text fill="#000000" font-family="sans-serif" font-size="11" lengthAdjust="spacingAndGlyphs" textLength="79" x="58.5" y="162.7046">confirmMatch()</text><ellipse cx="49.5" cy="172.9276" fill="#84BE84" rx="3" ry="3" style="stroke: #038048; stroke-width: 1.0;"/><text fill="#000000" font-family="sans-serif" font-size="11" lengthAdjust="spacingAndGlyphs" textLength="70" x="58.5" y="177.6865">cancelMatch()</text><path d="M2090.5,101 L2090.5,119.5 L2055.09,123.5 L2090.5,127.5 L2090.5,146.412 A0,0 0 0 0 2090.5,146.412 L2253.5,146.412 A0,0 0 0 0 2253.5,146.412 L2253.5,111 L2243.5,101 L2090.5,101 A0,0 0 0 0 2090.5,101 " fill="#FBFB77" filter="url(#f62myl64ewphq)" style="stroke: #A80036; stroke-width: 1.0;"/><path d="M2243.5,101 L2243.5,111 L2253.5,111 L2243.5,101 " fill="#FBFB77" style="stroke: #A80036; stroke-width: 1.0;"/><text fill="#000000" font-family="sans-serif" font-size="13" lengthAdjust="spacingAndGlyphs" textLength="142" x="2096.5" y="119.897">POST /api/auth/register</text><text fill="#000000" font-family="sans-serif" font-size="13" lengthAdjust="spacingAndGlyphs" textLength="126" x="2096.5" y="137.603">POST /api/auth/login</text><path d="M1752,92 L1752,119.5 L1716.77,123.5 L1752,127.5 L1752,155.118 A0,0 0 0 0 1752,155.118 L1906,155.118 A0,0 0 0 0 1906,155.118 L1906,102 L1896,92 L1752,92 A0,0 0 0 0 1752,92 " fill="#FBFB77" filter="url(#f62myl64ewphq)" style="stroke: #A80036; stroke-width: 1.0;"/><path d="M1896,92 L1896,102 L1906,102 L1896,92 " fill="#FBFB77" style="stroke: #A80036; stroke-width: 1.0;"/><text fill="#000000" font-family="sans-serif" font-size="13" lengthAdjust="spacingAndGlyphs" textLength="112" x="1758" y="110.897">GET /api/users/{id}</text><text fill="#000000" font-family="sans-serif" font-size="13" lengthAdjust="spacingAndGlyphs" textLength="114" x="1758" y="128.603">PUT /api/users/{id}</text><text fill="#000000" font-family="sans-serif" font-size="13" lengthAdjust="spacingAndGlyphs" textLength="133" x="1758" y="146.309">DELETE /api/users/{id}</text><path d="M1278,83 L1278,119.5 L1243.27,123.5 L1278,127.5 L1278,163.8241 A0,0 0 0 0 1278,163.8241 L1566,163.8241 A0,0 0 0 0 1566,163.8241 L1566,93 L1556,83 L1278,83 A0,0 0 0 0 1278,83 " fill="#FBFB77" filter="url(#f62myl64ewphq)" style="stroke: #A80036; stroke-width: 1.0;"/><path d="M1556,83 L1556,93 L1566,93 L1556,83 " fill="#FBFB77" style="stroke: #A80036; stroke-width: 1.0;"/><text fill="#000000" font-family="sans-serif" font-size="13" lengthAdjust="spacingAndGlyphs" textLength="106" x="1284" y="101.897">POST /api/players</text><text fill="#000000" font-family="sans-serif" font-size="13" lengthAdjust="spacingAndGlyphs" textLength="123" x="1284" y="119.603">GET /api/players/{id}</text><text fill="#000000" font-family="sans-serif" font-size="13" lengthAdjust="spacingAndGlyphs" textLength="125" x="1284" y="137.309">PUT /api/players/{id}</text><text fill="#000000" font-family="sans-serif" font-size="13" lengthAdjust="spacingAndGlyphs" textLength="267" x="1284" y="155.0151">GET /api/players/{id}/matchmaking-requests</text><path d="M724.5,83 L724.5,119.5 L689.55,123.5 L724.5,127.5 L724.5,163.8241 A0,0 0 0 0 724.5,163.8241 L1007.5,163.8241 A0,0 0 0 0 1007.5,163.8241 L1007.5,93 L997.5,83 L724.5,83 A0,0 0 0 0 724.5,83 " fill="#FBFB77" filter="url(#f62myl64ewphq)" style="stroke: #A80036; stroke-width: 1.0;"/><path d="M997.5,83 L997.5,93 L1007.5,93 L997.5,83 " fill="#FBFB77" style="stroke: #A80036; stroke-width: 1.0;"/><text fill="#000000" font-family="sans-serif" font-size="13" lengthAdjust="spacingAndGlyphs" textLength="202" x="730.5" y="101.897">POST /api/matchmaking-requests</text><text fill="#000000" font-family="sans-serif" font-size="13" lengthAdjust="spacingAndGlyphs" textLength="219" x="730.5" y="119.603">GET /api/matchmaking-requests/{id}</text><text fill="#000000" font-family="sans-serif" font-size="13" lengthAdjust="spacingAndGlyphs" textLength="240" x="730.5" y="137.309">DELETE /api/matchmaking-requests/{id}</text><text fill="#000000" font-family="sans-serif" font-size="13" lengthAdjust="spacingAndGlyphs" textLength="262" x="730.5" y="155.0151">GET /api/matchmaking-requests/{id}/match</text><path d="M217,74 L217,119.5 L181.65,123.5 L217,127.5 L217,172.5301 A0,0 0 0 0 217,172.5301 L445,172.5301 A0,0 0 0 0 445,172.5301 L445,84 L435,74 L217,74 A0,0 0 0 0 217,74 " fill="#FBFB77" filter="url(#f62myl64ewphq)" style="stroke: #A80036; stroke-width: 1.0;"/><path d="M435,74 L435,84 L445,84 L435,74 " fill="#FBFB77" style="stroke: #A80036; stroke-width: 1.0;"/><text fill="#000000" font-family="sans-serif" font-size="13" lengthAdjust="spacingAndGlyphs" textLength="105" x="223" y="92.897">GET /api/matches</text><text fill="#000000" font-family="sans-serif" font-size="13" lengthAdjust="spacingAndGlyphs" textLength="131" x="223" y="110.603">GET /api/matches/{id}</text><text fill="#000000" font-family="sans-serif" font-size="13" lengthAdjust="spacingAndGlyphs" textLength="207" x="223" y="128.309">GET /api/matches/{id}/participants</text><text fill="#000000" font-family="sans-serif" font-size="13" lengthAdjust="spacingAndGlyphs" textLength="191" x="223" y="146.0151">POST /api/matches/{id}/confirm</text><text fill="#000000" font-family="sans-serif" font-size="13" lengthAdjust="spacingAndGlyphs" textLength="182" x="223" y="163.7211">POST /api/matches/{id}/cancel</text><!--MD5=[24d428d50459d3928db677339f523640]
@startuml
package "controller" {

  class AuthController {
    + register()
    + login()
  }

  class UserController {
    + getUserById()
    + updateUser()
    + deactivateUser()
  }

  class PlayerController {
    + createPlayerProfile()
    + getPlayerById()
    + updatePlayer()
    + getPlayerMatchmakingRequests()
  }

  class MatchmakingRequestController {
    + createMatchmakingRequest()
    + getMatchmakingRequestById()
    + cancelMatchmakingRequest()
    + getMatchedMatch()
  }

  class MatchController {
    + getMatchById()
    + getAllMatches()
    + getMatchParticipants()
    + confirmMatch()
    + cancelMatch()
  }

  note right of AuthController
    POST /api/auth/register
    POST /api/auth/login
  end note

  note right of UserController
    GET /api/users/{id}
    PUT /api/users/{id}
    DELETE /api/users/{id}
  end note

  note right of PlayerController
    POST /api/players
    GET /api/players/{id}
    PUT /api/players/{id}
    GET /api/players/{id}/matchmaking-requests
  end note

  note right of MatchmakingRequestController
    POST /api/matchmaking-requests
    GET /api/matchmaking-requests/{id}
    DELETE /api/matchmaking-requests/{id}
    GET /api/matchmaking-requests/{id}/match
  end note

  note right of MatchController
    GET /api/matches
    GET /api/matches/{id}
    GET /api/matches/{id}/participants
    POST /api/matches/{id}/confirm
    POST /api/matches/{id}/cancel
  end note
}
@enduml

PlantUML version 1.2020.02(Sun Mar 01 11:22:07 CET 2020)
(GPL source distribution)
Java Runtime: OpenJDK Runtime Environment
JVM: OpenJDK 64-Bit Server VM
Java Version: 21.0.10+7-Ubuntu-124.04
Operating System: Linux
Default Encoding: UTF-8
Language: en
Country: US
--></g></svg>