<?xml version="1.0" encoding="UTF-8" standalone="no"?><svg xmlns="http://www.w3.org/2000/svg" xmlns:xlink="http://www.w3.org/1999/xlink" contentScriptType="application/ecmascript" contentStyleType="text/css" height="744px" preserveAspectRatio="none" style="width:777px;height:744px;" version="1.1" viewBox="0 0 777 744" width="777px" zoomAndPan="magnify"><defs><filter height="300%" id="f3eheg38t3hkg" width="300%" x="-1" y="-1"><feGaussianBlur result="blurOut" stdDeviation="2.0"/><feColorMatrix in="blurOut" result="blurOut2" type="matrix" values="0 0 0 0 0 0 0 0 0 0 0 0 0 0 0 0 0 0 .4 0"/><feOffset dx="4.0" dy="4.0" in="blurOut2" result="blurOut3"/><feBlend in="SourceGraphic" in2="blurOut3" mode="normal"/></filter></defs><g><!--MD5=[5d4cd377749310b66bf14896f5cd8d9b]
cluster model--><polygon fill="#FFFFFF" filter="url(#f3eheg38t3hkg)" points="22,24,72,24,79,49.0679,755,49.0679,755,732,22,732,22,24" style="stroke: #000000; stroke-width: 1.5;"/><line style="stroke: #000000; stroke-width: 1.5;" x1="22" x2="79" y1="49.0679" y2="49.0679"/><text fill="#000000" font-family="sans-serif" font-size="14" font-weight="bold" lengthAdjust="spacingAndGlyphs" textLength="44" x="26" y="40.9659">model</text><!--MD5=[3fd616f346a44cd59a91eb10b19e157c]
class User--><rect fill="#FEFECE" filter="url(#f3eheg38t3hkg)" height="137.8913" id="User" style="stroke: #A80036; stroke-width: 1.5;" width="144" x="557" y="436"/><ellipse cx="611.25" cy="452" fill="#ADD1B2" rx="11" ry="11" style="stroke: #A80036; stroke-width: 1.0;"/><path d="M614.2188,457.6406 Q613.6406,457.9375 613,458.0781 Q612.3594,458.2344 611.6563,458.2344 Q609.1563,458.2344 607.8281,456.5938 Q606.5156,454.9375 606.5156,451.8125 Q606.5156,448.6875 607.8281,447.0313 Q609.1563,445.375 611.6563,445.375 Q612.3594,445.375 613,445.5313 Q613.6563,445.6875 614.2188,445.9844 L614.2188,448.7031 Q613.5938,448.125 613,447.8594 Q612.4063,447.5781 611.7813,447.5781 Q610.4375,447.5781 609.75,448.6563 Q609.0625,449.7188 609.0625,451.8125 Q609.0625,453.9063 609.75,454.9844 Q610.4375,456.0469 611.7813,456.0469 Q612.4063,456.0469 613,455.7813 Q613.5938,455.5 614.2188,454.9219 L614.2188,457.6406 Z "/><text fill="#000000" font-family="sans-serif" font-size="12" lengthAdjust="spacingAndGlyphs" textLength="27" x="631.75" y="456.656">User</text><line style="stroke: #A80036; stroke-width: 1.5;" x1="558" x2="700" y1="468" y2="468"/><rect fill="none" height="6" style="stroke: #C82930; stroke-width: 1.0;" width="6" x="565" y="476"/><text fill="#000000" font-family="sans-serif" font-size="11" lengthAdjust="spacingAndGlyphs" textLength="46" x="577" y="483.7589">id : Long</text><rect fill="none" height="6" style="stroke: #C82930; stroke-width: 1.0;" width="6" x="565" y="490.9819"/><text fill="#000000" font-family="sans-serif" font-size="11" lengthAdjust="spacingAndGlyphs" textLength="69" x="577" y="498.7408">email : String</text><rect fill="none" height="6" style="stroke: #C82930; stroke-width: 1.0;" width="6" x="565" y="505.9638"/><text fill="#000000" font-family="sans-serif" font-size="11" lengthAdjust="spacingAndGlyphs" textLength="93" x="577" y="513.7227">username : String</text><rect fill="none" height="6" style="stroke: #C82930; stroke-width: 1.0;" width="6" x="565" y="520.9457"/><text fill="#000000" font-family="sans-serif" font-size="11" lengthAdjust="spacingAndGlyphs" textLength="118" x="577" y="528.7046">passwordHash : String</text><rect fill="none" height="6" style="stroke: #C82930; stroke-width: 1.0;" width="6" x="565" y="535.9276"/><text fill="#000000" font-family="sans-serif" font-size="11" lengthAdjust="spacingAndGlyphs" textLength="77" x="577" y="543.6865">role : UserRole</text><rect fill="none" height="6" style="stroke: #C82930; stroke-width: 1.0;" width="6" x="565" y="550.9094"/><text fill="#000000" font-family="sans-serif" font-size="11" lengthAdjust="spacingAndGlyphs" textLength="82" x="577" y="558.6684">active : boolean</text><line style="stroke: #A80036; stroke-width: 1.5;" x1="558" x2="700" y1="565.8913" y2="565.8913"/><!--MD5=[2cb47ba637a0d19583e6199456f6ad0b]
class Player--><rect fill="#FEFECE" filter="url(#f3eheg38t3hkg)" height="62.9819" id="Player" style="stroke: #A80036; stroke-width: 1.5;" width="72" x="408" y="653"/><ellipse cx="425.25" cy="669" fill="#ADD1B2" rx="11" ry="11" style="stroke: #A80036; stroke-width: 1.0;"/><path d="M428.2188,674.6406 Q427.6406,674.9375 427,675.0781 Q426.3594,675.2344 425.6563,675.2344 Q423.1563,675.2344 421.8281,673.5938 Q420.5156,671.9375 420.5156,668.8125 Q420.5156,665.6875 421.8281,664.0313 Q423.1563,662.375 425.6563,662.375 Q426.3594,662.375 427,662.5313 Q427.6563,662.6875 428.2188,662.9844 L428.2188,665.7031 Q427.5938,665.125 427,664.8594 Q426.4063,664.5781 425.7813,664.5781 Q424.4375,664.5781 423.75,665.6563 Q423.0625,666.7188 423.0625,668.8125 Q423.0625,670.9063 423.75,671.9844 Q424.4375,673.0469 425.7813,673.0469 Q426.4063,673.0469 427,672.7813 Q427.5938,672.5 428.2188,671.9219 L428.2188,674.6406 Z "/><text fill="#000000" font-family="sans-serif" font-size="12" lengthAdjust="spacingAndGlyphs" textLength="35" x="439.75" y="673.656">Player</text><line style="stroke: #A80036; stroke-width: 1.5;" x1="409" x2="479" y1="685" y2="685"/><rect fill="none" height="6" style="stroke: #C82930; stroke-width: 1.0;" width="6" x="416" y="693"/><text fill="#000000" font-family="sans-serif" font-size="11" lengthAdjust="spacingAndGlyphs" textLength="46" x="428" y="700.7589">id : Long</text><line style="stroke: #A80036; stroke-width: 1.5;" x1="409" x2="479" y1="707.9819" y2="707.9819"/><!--MD5=[d9427b671d7d049aff2d6f2fe36a13b3]
class Field--><rect fill="#FEFECE" filter="url(#f3eheg38t3hkg)" height="92.9457" id="Field" style="stroke: #A80036; stroke-width: 1.5;" width="109" x="184.5" y="458.5"/><ellipse cx="222.45" cy="474.5" fill="#ADD1B2" rx="11" ry="11" style="stroke: #A80036; stroke-width: 1.0;"/><path d="M225.4188,480.1406 Q224.8406,480.4375 224.2,480.5781 Q223.5594,480.7344 222.8563,480.7344 Q220.3563,480.7344 219.0281,479.0938 Q217.7156,477.4375 217.7156,474.3125 Q217.7156,471.1875 219.0281,469.5313 Q220.3563,467.875 222.8563,467.875 Q223.5594,467.875 224.2,468.0313 Q224.8563,468.1875 225.4188,468.4844 L225.4188,471.2031 Q224.7938,470.625 224.2,470.3594 Q223.6063,470.0781 222.9813,470.0781 Q221.6375,470.0781 220.95,471.1563 Q220.2625,472.2188 220.2625,474.3125 Q220.2625,476.4063 220.95,477.4844 Q221.6375,478.5469 222.9813,478.5469 Q223.6063,478.5469 224.2,478.2813 Q224.7938,478 225.4188,477.4219 L225.4188,480.1406 Z "/><text fill="#000000" font-family="sans-serif" font-size="12" lengthAdjust="spacingAndGlyphs" textLength="26" x="241.55" y="479.156">Field</text><line style="stroke: #A80036; stroke-width: 1.5;" x1="185.5" x2="292.5" y1="490.5" y2="490.5"/><rect fill="none" height="6" style="stroke: #C82930; stroke-width: 1.0;" width="6" x="192.5" y="498.5"/><text fill="#000000" font-family="sans-serif" font-size="11" lengthAdjust="spacingAndGlyphs" textLength="46" x="204.5" y="506.2589">id : Long</text><rect fill="none" height="6" style="stroke: #C82930; stroke-width: 1.0;" width="6" x="192.5" y="513.4819"/><text fill="#000000" font-family="sans-serif" font-size="11" lengthAdjust="spacingAndGlyphs" textLength="70" x="204.5" y="521.2408">name : String</text><rect fill="none" height="6" style="stroke: #C82930; stroke-width: 1.0;" width="6" x="192.5" y="528.4638"/><text fill="#000000" font-family="sans-serif" font-size="11" lengthAdjust="spacingAndGlyphs" textLength="83" x="204.5" y="536.2227">location : String</text><line style="stroke: #A80036; stroke-width: 1.5;" x1="185.5" x2="292.5" y1="543.4457" y2="543.4457"/><!--MD5=[de90f01545246fa2cc8db2a771bbe977]
class MatchmakingRequest--><rect fill="#FEFECE" filter="url(#f3eheg38t3hkg)" height="92.9457" id="MatchmakingRequest" style="stroke: #A80036; stroke-width: 1.5;" width="211" x="83.5" y="69.5"/><ellipse cx="124.6" cy="85.5" fill="#ADD1B2" rx="11" ry="11" style="stroke: #A80036; stroke-width: 1.0;"/><path d="M127.5688,91.1406 Q126.9906,91.4375 126.35,91.5781 Q125.7094,91.7344 125.0063,91.7344 Q122.5063,91.7344 121.1781,90.0938 Q119.8656,88.4375 119.8656,85.3125 Q119.8656,82.1875 121.1781,80.5313 Q122.5063,78.875 125.0063,78.875 Q125.7094,78.875 126.35,79.0313 Q127.0063,79.1875 127.5688,79.4844 L127.5688,82.2031 Q126.9438,81.625 126.35,81.3594 Q125.7563,81.0781 125.1313,81.0781 Q123.7875,81.0781 123.1,82.1563 Q122.4125,83.2188 122.4125,85.3125 Q122.4125,87.4063 123.1,88.4844 Q123.7875,89.5469 125.1313,89.5469 Q125.7563,89.5469 126.35,89.2813 Q126.9438,89 127.5688,88.4219 L127.5688,91.1406 Z "/><text fill="#000000" font-family="sans-serif" font-size="12" lengthAdjust="spacingAndGlyphs" textLength="121" x="144.4" y="90.156">MatchmakingRequest</text><line style="stroke: #A80036; stroke-width: 1.5;" x1="84.5" x2="293.5" y1="101.5" y2="101.5"/><rect fill="none" height="6" style="stroke: #C82930; stroke-width: 1.0;" width="6" x="91.5" y="109.5"/><text fill="#000000" font-family="sans-serif" font-size="11" lengthAdjust="spacingAndGlyphs" textLength="46" x="103.5" y="117.2589">id : Long</text><rect fill="none" height="6" style="stroke: #C82930; stroke-width: 1.0;" width="6" x="91.5" y="124.4819"/><text fill="#000000" font-family="sans-serif" font-size="11" lengthAdjust="spacingAndGlyphs" textLength="135" x="103.5" y="132.2408">createdAt : LocalDateTime</text><rect fill="none" height="6" style="stroke: #C82930; stroke-width: 1.0;" width="6" x="91.5" y="139.4638"/><text fill="#000000" font-family="sans-serif" font-size="11" lengthAdjust="spacingAndGlyphs" textLength="185" x="103.5" y="147.2227">status : MatchmakingRequestStatus</text><line style="stroke: #A80036; stroke-width: 1.5;" x1="84.5" x2="293.5" y1="154.4457" y2="154.4457"/><!--MD5=[3a8ca752e09f63d84c5e5fc413558943]
class AvailabilitySlot--><rect fill="#FEFECE" filter="url(#f3eheg38t3hkg)" height="92.9457" id="AvailabilitySlot" style="stroke: #A80036; stroke-width: 1.5;" width="146" x="245" y="256.5"/><ellipse cx="274.85" cy="272.5" fill="#ADD1B2" rx="11" ry="11" style="stroke: #A80036; stroke-width: 1.0;"/><path d="M277.8188,278.1406 Q277.2406,278.4375 276.6,278.5781 Q275.9594,278.7344 275.2563,278.7344 Q272.7563,278.7344 271.4281,277.0938 Q270.1156,275.4375 270.1156,272.3125 Q270.1156,269.1875 271.4281,267.5313 Q272.7563,265.875 275.2563,265.875 Q275.9594,265.875 276.6,266.0313 Q277.2563,266.1875 277.8188,266.4844 L277.8188,269.2031 Q277.1938,268.625 276.6,268.3594 Q276.0063,268.0781 275.3813,268.0781 Q274.0375,268.0781 273.35,269.1563 Q272.6625,270.2188 272.6625,272.3125 Q272.6625,274.4063 273.35,275.4844 Q274.0375,276.5469 275.3813,276.5469 Q276.0063,276.5469 276.6,276.2813 Q277.1938,276 277.8188,275.4219 L277.8188,278.1406 Z "/><text fill="#000000" font-family="sans-serif" font-size="12" lengthAdjust="spacingAndGlyphs" textLength="81" x="292.15" y="277.156">AvailabilitySlot</text><line style="stroke: #A80036; stroke-width: 1.5;" x1="246" x2="390" y1="288.5" y2="288.5"/><rect fill="none" height="6" style="stroke: #C82930; stroke-width: 1.0;" width="6" x="253" y="296.5"/><text fill="#000000" font-family="sans-serif" font-size="11" lengthAdjust="spacingAndGlyphs" textLength="46" x="265" y="304.2589">id : Long</text><rect fill="none" height="6" style="stroke: #C82930; stroke-width: 1.0;" width="6" x="253" y="311.4819"/><text fill="#000000" font-family="sans-serif" font-size="11" lengthAdjust="spacingAndGlyphs" textLength="120" x="265" y="319.2408">startAt : LocalDateTime</text><rect fill="none" height="6" style="stroke: #C82930; stroke-width: 1.0;" width="6" x="253" y="326.4638"/><text fill="#000000" font-family="sans-serif" font-size="11" lengthAdjust="spacingAndGlyphs" textLength="116" x="265" y="334.2227">endAt : LocalDateTime</text><line style="stroke: #A80036; stroke-width: 1.5;" x1="246" x2="390" y1="341.4457" y2="341.4457"/><!--MD5=[5f0899136ed8f523b18ed05779c24112]
class Match--><rect fill="#FEFECE" filter="url(#f3eheg38t3hkg)" height="92.9457" id="Match" style="stroke: #A80036; stroke-width: 1.5;" width="175" x="426.5" y="256.5"/><ellipse cx="492.25" cy="272.5" fill="#ADD1B2" rx="11" ry="11" style="stroke: #A80036; stroke-width: 1.0;"/><path d="M495.2188,278.1406 Q494.6406,278.4375 494,278.5781 Q493.3594,278.7344 492.6563,278.7344 Q490.1563,278.7344 488.8281,277.0938 Q487.5156,275.4375 487.5156,272.3125 Q487.5156,269.1875 488.8281,267.5313 Q490.1563,265.875 492.6563,265.875 Q493.3594,265.875 494,266.0313 Q494.6563,266.1875 495.2188,266.4844 L495.2188,269.2031 Q494.5938,268.625 494,268.3594 Q493.4063,268.0781 492.7813,268.0781 Q491.4375,268.0781 490.75,269.1563 Q490.0625,270.2188 490.0625,272.3125 Q490.0625,274.4063 490.75,275.4844 Q491.4375,276.5469 492.7813,276.5469 Q493.4063,276.5469 494,276.2813 Q494.5938,276 495.2188,275.4219 L495.2188,278.1406 Z "/><text fill="#000000" font-family="sans-serif" font-size="12" lengthAdjust="spacingAndGlyphs" textLength="35" x="512.75" y="277.156">Match</text><line style="stroke: #A80036; stroke-width: 1.5;" x1="427.5" x2="600.5" y1="288.5" y2="288.5"/><rect fill="none" height="6" style="stroke: #C82930; stroke-width: 1.0;" width="6" x="434.5" y="296.5"/><text fill="#000000" font-family="sans-serif" font-size="11" lengthAdjust="spacingAndGlyphs" textLength="46" x="446.5" y="304.2589">id : Long</text><rect fill="none" height="6" style="stroke: #C82930; stroke-width: 1.0;" width="6" x="434.5" y="311.4819"/><text fill="#000000" font-family="sans-serif" font-size="11" lengthAdjust="spacingAndGlyphs" textLength="149" x="446.5" y="319.2408">scheduledAt : LocalDateTime</text><rect fill="none" height="6" style="stroke: #C82930; stroke-width: 1.0;" width="6" x="434.5" y="326.4638"/><text fill="#000000" font-family="sans-serif" font-size="11" lengthAdjust="spacingAndGlyphs" textLength="104" x="446.5" y="334.2227">status : MatchStatus</text><line style="stroke: #A80036; stroke-width: 1.5;" x1="427.5" x2="600.5" y1="341.4457" y2="341.4457"/><!--MD5=[e5867dee2dcc2a101e8405ff1a38fee8]
class MatchParticipant--><rect fill="#FEFECE" filter="url(#f3eheg38t3hkg)" height="77.9638" id="MatchParticipant" style="stroke: #A80036; stroke-width: 1.5;" width="155" x="366.5" y="466"/><ellipse cx="394.1" cy="482" fill="#ADD1B2" rx="11" ry="11" style="stroke: #A80036; stroke-width: 1.0;"/><path d="M397.0688,487.6406 Q396.4906,487.9375 395.85,488.0781 Q395.2094,488.2344 394.5063,488.2344 Q392.0063,488.2344 390.6781,486.5938 Q389.3656,484.9375 389.3656,481.8125 Q389.3656,478.6875 390.6781,477.0313 Q392.0063,475.375 394.5063,475.375 Q395.2094,475.375 395.85,475.5313 Q396.5063,475.6875 397.0688,475.9844 L397.0688,478.7031 Q396.4438,478.125 395.85,477.8594 Q395.2563,477.5781 394.6313,477.5781 Q393.2875,477.5781 392.6,478.6563 Q391.9125,479.7188 391.9125,481.8125 Q391.9125,483.9063 392.6,484.9844 Q393.2875,486.0469 394.6313,486.0469 Q395.2563,486.0469 395.85,485.7813 Q396.4438,485.5 397.0688,484.9219 L397.0688,487.6406 Z "/><text fill="#000000" font-family="sans-serif" font-size="12" lengthAdjust="spacingAndGlyphs" textLength="95" x="410.9" y="486.656">MatchParticipant</text><line style="stroke: #A80036; stroke-width: 1.5;" x1="367.5" x2="520.5" y1="498" y2="498"/><rect fill="none" height="6" style="stroke: #C82930; stroke-width: 1.0;" width="6" x="374.5" y="506"/><text fill="#000000" font-family="sans-serif" font-size="11" lengthAdjust="spacingAndGlyphs" textLength="46" x="386.5" y="513.7589">id : Long</text><rect fill="none" height="6" style="stroke: #C82930; stroke-width: 1.0;" width="6" x="374.5" y="520.9819"/><text fill="#000000" font-family="sans-serif" font-size="11" lengthAdjust="spacingAndGlyphs" textLength="129" x="386.5" y="528.7408">joinedAt : LocalDateTime</text><line style="stroke: #A80036; stroke-width: 1.5;" x1="367.5" x2="520.5" y1="535.9638" y2="535.9638"/><!--MD5=[45d42ff7800d812d5f83c7d3273eb427]
class UserRole--><rect fill="#FEFECE" filter="url(#f3eheg38t3hkg)" height="77.9638" id="UserRole" style="stroke: #A80036; stroke-width: 1.5;" width="83" x="432.5" y="77"/><ellipse cx="447.5" cy="93" fill="#EB937F" rx="11" ry="11" style="stroke: #A80036; stroke-width: 1.0;"/><path d="M451.6094,99 L443.8906,99 L443.8906,86.6094 L451.6094,86.6094 L451.6094,88.7656 L446.3438,88.7656 L446.3438,91.4375 L451.1094,91.4375 L451.1094,93.5938 L446.3438,93.5938 L446.3438,96.8438 L451.6094,96.8438 L451.6094,99 Z "/><text fill="#000000" font-family="sans-serif" font-size="12" lengthAdjust="spacingAndGlyphs" textLength="51" x="461.5" y="97.656">UserRole</text><line style="stroke: #A80036; stroke-width: 1.5;" x1="433.5" x2="514.5" y1="109" y2="109"/><text fill="#000000" font-family="sans-serif" font-size="11" lengthAdjust="spacingAndGlyphs" textLength="39" x="438.5" y="124.7589">PLAYER</text><text fill="#000000" font-family="sans-serif" font-size="11" lengthAdjust="spacingAndGlyphs" textLength="37" x="438.5" y="139.7408">ADMIN</text><line style="stroke: #A80036; stroke-width: 1.5;" x1="433.5" x2="514.5" y1="146.9638" y2="146.9638"/><!--MD5=[e1b924e6aa4f4d6371ca4633d5527a0d]
class MatchmakingRequestStatus--><rect fill="#FEFECE" filter="url(#f3eheg38t3hkg)" height="107.9276" id="MatchmakingRequestStatus" style="stroke: #A80036; stroke-width: 1.5;" width="188" x="551" y="62"/><ellipse cx="566" cy="78" fill="#EB937F" rx="11" ry="11" style="stroke: #A80036; stroke-width: 1.0;"/><path d="M570.1094,84 L562.3906,84 L562.3906,71.6094 L570.1094,71.6094 L570.1094,73.7656 L564.8438,73.7656 L564.8438,76.4375 L569.6094,76.4375 L569.6094,78.5938 L564.8438,78.5938 L564.8438,81.8438 L570.1094,81.8438 L570.1094,84 Z "/><text fill="#000000" font-family="sans-serif" font-size="12" lengthAdjust="spacingAndGlyphs" textLength="156" x="580" y="82.656">MatchmakingRequestStatus</text><line style="stroke: #A80036; stroke-width: 1.5;" x1="552" x2="738" y1="94" y2="94"/><text fill="#000000" font-family="sans-serif" font-size="11" lengthAdjust="spacingAndGlyphs" textLength="45" x="557" y="109.7589">QUEUED</text><text fill="#000000" font-family="sans-serif" font-size="11" lengthAdjust="spacingAndGlyphs" textLength="52" x="557" y="124.7408">MATCHED</text><text fill="#000000" font-family="sans-serif" font-size="11" lengthAdjust="spacingAndGlyphs" textLength="61" x="557" y="139.7227">CANCELLED</text><text fill="#000000" font-family="sans-serif" font-size="11" lengthAdjust="spacingAndGlyphs" textLength="44" x="557" y="154.7046">EXPIRED</text><line style="stroke: #A80036; stroke-width: 1.5;" x1="552" x2="738" y1="161.9276" y2="161.9276"/><!--MD5=[a75d2b515b4eef93e04c109b93304989]
class MatchStatus--><rect fill="#FEFECE" filter="url(#f3eheg38t3hkg)" height="107.9276" id="MatchStatus" style="stroke: #A80036; stroke-width: 1.5;" width="102" x="637" y="249"/><ellipse cx="652" cy="265" fill="#EB937F" rx="11" ry="11" style="stroke: #A80036; stroke-width: 1.0;"/><path d="M656.1094,271 L648.3906,271 L648.3906,258.6094 L656.1094,258.6094 L656.1094,260.7656 L650.8438,260.7656 L650.8438,263.4375 L655.6094,263.4375 L655.6094,265.5938 L650.8438,265.5938 L650.8438,268.8438 L656.1094,268.8438 L656.1094,271 Z "/><text fill="#000000" font-family="sans-serif" font-size="12" lengthAdjust="spacingAndGlyphs" textLength="70" x="666" y="269.656">MatchStatus</text><line style="stroke: #A80036; stroke-width: 1.5;" x1="638" x2="738" y1="281" y2="281"/><text fill="#000000" font-family="sans-serif" font-size="11" lengthAdjust="spacingAndGlyphs" textLength="47" x="643" y="296.7589">CREATED</text><text fill="#000000" font-family="sans-serif" font-size="11" lengthAdjust="spacingAndGlyphs" textLength="65" x="643" y="311.7408">CONFIRMED</text><text fill="#000000" font-family="sans-serif" font-size="11" lengthAdjust="spacingAndGlyphs" textLength="61" x="643" y="326.7227">CANCELLED</text><text fill="#000000" font-family="sans-serif" font-size="11" lengthAdjust="spacingAndGlyphs" textLength="65" x="643" y="341.7046">COMPLETED</text><line style="stroke: #A80036; stroke-width: 1.5;" x1="638" x2="738" y1="348.9276" y2="348.9276"/><!--MD5=[a6d2a5af26f22c316b3c030e8bd9b8f9]
link User to Player--><path d="M558,574.12 C529.68,601.3 498.5,631.21 475.92,652.87 " fill="none" id="User-Player" style="stroke: #A80036; stroke-width: 1.0;"/><text fill="#000000" font-family="sans-serif" font-size="13" lengthAdjust="spacingAndGlyphs" textLength="75" x="526" y="618.897">playerProfile</text><text fill="#000000" font-family="sans-serif" font-size="13" lengthAdjust="spacingAndGlyphs" textLength="7" x="543.6664" y="595.6978">1</text><text fill="#000000" font-family="sans-serif" font-size="13" lengthAdjust="spacingAndGlyphs" textLength="20" x="460.715" y="641.0678">0..1</text><!--MD5=[86360d01c31982927a5fab602ab4361e]
link MatchmakingRequest to Player--><path d="M153.5,162.65 C145.19,174.45 136.79,187.39 130,200 C118.93,220.57 116.61,226.33 111,249 C75.78,391.28 61.89,471.84 167,574 C233.59,638.72 343.06,666.53 402.49,677.36 " fill="none" id="MatchmakingRequest-&gt;Player" style="stroke: #A80036; stroke-width: 1.0;"/><polygon fill="#A80036" points="407.73,678.29,399.5639,672.7841,402.8064,677.4194,398.171,680.6619,407.73,678.29" style="stroke: #A80036; stroke-width: 1.0;"/><text fill="#000000" font-family="sans-serif" font-size="13" lengthAdjust="spacingAndGlyphs" textLength="37" x="87" y="401.897">player</text><text fill="#000000" font-family="sans-serif" font-size="13" lengthAdjust="spacingAndGlyphs" textLength="20" x="127.1016" y="184.3559">0..*</text><text fill="#000000" font-family="sans-serif" font-size="13" lengthAdjust="spacingAndGlyphs" textLength="7" x="392.9003" y="672.3623">1</text><!--MD5=[6a196929ecaf2a4f678ceeee46af7701]
reverse link MatchmakingRequest to AvailabilitySlot--><path d="M228.35,173.44 C246.91,200.06 268.77,231.4 286.26,256.48 " fill="none" id="MatchmakingRequest&lt;-AvailabilitySlot" style="stroke: #A80036; stroke-width: 1.0;"/><polygon fill="#A80036" points="220.89,162.73,221.0415,169.9395,227.7547,172.5725,227.6032,165.363,220.89,162.73" style="stroke: #A80036; stroke-width: 1.0;"/><text fill="#000000" font-family="sans-serif" font-size="13" lengthAdjust="spacingAndGlyphs" textLength="92" x="258" y="214.897">availabilitySlots</text><text fill="#000000" font-family="sans-serif" font-size="13" lengthAdjust="spacingAndGlyphs" textLength="7" x="217.8823" y="184.4472">1</text><text fill="#000000" font-family="sans-serif" font-size="13" lengthAdjust="spacingAndGlyphs" textLength="20" x="259.6077" y="244.6688">1..*</text><!--MD5=[b53a568410a80251a49d3b51b03f7e44]
link MatchmakingRequest to Field--><path d="M161.95,162.61 C148.89,187.27 134.64,218.8 128,249 C117.69,295.88 112.75,311.49 128,357 C140.2,393.41 165.39,428.01 188.68,454.49 " fill="none" id="MatchmakingRequest-&gt;Field" style="stroke: #A80036; stroke-width: 1.0;"/><polygon fill="#A80036" points="192.11,458.33,189.1382,448.9402,188.7953,454.5867,183.1488,454.2438,192.11,458.33" style="stroke: #A80036; stroke-width: 1.0;"/><text fill="#000000" font-family="sans-serif" font-size="13" lengthAdjust="spacingAndGlyphs" textLength="98" x="129" y="308.397">acceptableFields</text><text fill="#000000" font-family="sans-serif" font-size="13" lengthAdjust="spacingAndGlyphs" textLength="20" x="159.5523" y="184.3103">0..*</text><text fill="#000000" font-family="sans-serif" font-size="13" lengthAdjust="spacingAndGlyphs" textLength="20" x="163.3987" y="446.8373">0..*</text><!--MD5=[b03666f4f877c58142a327b9e17a8c80]
link MatchmakingRequest to Match--><path d="M287.65,162.52 C311.33,174.16 336.32,187.07 359,200 C387.69,216.35 418.26,235.97 444.6,253.61 " fill="none" id="MatchmakingRequest-&gt;Match" style="stroke: #A80036; stroke-width: 1.0;"/><polygon fill="#A80036" points="448.79,256.42,443.5401,248.087,444.6363,253.6366,439.0867,254.7328,448.79,256.42" style="stroke: #A80036; stroke-width: 1.0;"/><text fill="#000000" font-family="sans-serif" font-size="13" lengthAdjust="spacingAndGlyphs" textLength="91" x="390" y="214.897">matchedMatch</text><text fill="#000000" font-family="sans-serif" font-size="13" lengthAdjust="spacingAndGlyphs" textLength="20" x="280.1164" y="184.2077">0..*</text><text fill="#000000" font-family="sans-serif" font-size="13" lengthAdjust="spacingAndGlyphs" textLength="20" x="416.8034" y="244.5992">0..1</text><!--MD5=[d07314460e37a4a286df854e977425fe]
reverse link Match to MatchParticipant--><path d="M493.69,362.04 C481.98,395.49 467.59,436.6 457.32,465.95 " fill="none" id="Match&lt;-MatchParticipant" style="stroke: #A80036; stroke-width: 1.0;"/><polygon fill="#A80036" points="498.03,349.63,492.2709,353.9697,494.0617,360.9549,499.8208,356.6152,498.03,349.63" style="stroke: #A80036; stroke-width: 1.0;"/><text fill="#000000" font-family="sans-serif" font-size="13" lengthAdjust="spacingAndGlyphs" textLength="71" x="484" y="401.897">participants</text><text fill="#000000" font-family="sans-serif" font-size="13" lengthAdjust="spacingAndGlyphs" textLength="7" x="488.292" y="371.3331">1</text><text fill="#000000" font-family="sans-serif" font-size="13" lengthAdjust="spacingAndGlyphs" textLength="27" x="430.2868" y="454.1484">0..10</text><!--MD5=[ecd54e1f6427473fc2ecb311fe3ac281]
link MatchParticipant to Player--><path d="M444,544.08 C444,574.8 444,617.69 444,647.77 " fill="none" id="MatchParticipant-&gt;Player" style="stroke: #A80036; stroke-width: 1.0;"/><polygon fill="#A80036" points="444,652.85,448,643.85,444,647.85,440,643.85,444,652.85" style="stroke: #A80036; stroke-width: 1.0;"/><text fill="#000000" font-family="sans-serif" font-size="13" lengthAdjust="spacingAndGlyphs" textLength="37" x="445" y="618.897">player</text><text fill="#000000" font-family="sans-serif" font-size="13" lengthAdjust="spacingAndGlyphs" textLength="20" x="422.3438" y="565.9189">0..*</text><text fill="#000000" font-family="sans-serif" font-size="13" lengthAdjust="spacingAndGlyphs" textLength="7" x="436.2344" y="641.0434">1</text><!--MD5=[27f7ed8c9d790b7530700f629933acd4]
link Match to Field--><path d="M451.25,349.63 C405.18,383.14 343.03,428.34 297.89,461.17 " fill="none" id="Match-&gt;Field" style="stroke: #A80036; stroke-width: 1.0;"/><polygon fill="#A80036" points="293.58,464.31,303.2104,462.2474,297.6224,461.3674,298.5024,455.7794,293.58,464.31" style="stroke: #A80036; stroke-width: 1.0;"/><text fill="#000000" font-family="sans-serif" font-size="13" lengthAdjust="spacingAndGlyphs" textLength="25" x="393" y="401.897">field</text><text fill="#000000" font-family="sans-serif" font-size="13" lengthAdjust="spacingAndGlyphs" textLength="20" x="421.0195" y="371.3331">0..*</text><text fill="#000000" font-family="sans-serif" font-size="13" lengthAdjust="spacingAndGlyphs" textLength="20" x="301.4507" y="455.2583">0..1</text><!--MD5=[ea64ffce3cd886b7fd685cbace922f9c]
link UserRole to MatchmakingRequestStatus--><!--MD5=[cedf9040f585f717e21f77af22642856]
link UserRole to MatchStatus--><!--MD5=[cb617d644591604e9a1fe253a910e902]
@startuml
package "model" {

  class User {
    - id : Long
    - email : String
    - username : String
    - passwordHash : String
    - role : UserRole
    - active : boolean
  }

  class Player {
    - id : Long
  }

  class Field {
    - id : Long
    - name : String
    - location : String
  }

  class MatchmakingRequest {
    - id : Long
    - createdAt : LocalDateTime
    - status : MatchmakingRequestStatus
  }

  class AvailabilitySlot {
    - id : Long
    - startAt : LocalDateTime
    - endAt : LocalDateTime
  }

  class Match {
    - id : Long
    - scheduledAt : LocalDateTime
    - status : MatchStatus
  }

  class MatchParticipant {
    - id : Long
    - joinedAt : LocalDateTime
  }

  enum UserRole {
    PLAYER
    ADMIN
  }

  enum MatchmakingRequestStatus {
    QUEUED
    MATCHED
    CANCELLED
    EXPIRED
  }

  enum MatchStatus {
    CREATED
    CONFIRMED
    CANCELLED
    COMPLETED
  }

  User "1" - - "0..1" Player : playerProfile

  MatchmakingRequest "0..*" - -> "1" Player : player
  MatchmakingRequest "1" *- - "1..*" AvailabilitySlot : availabilitySlots
  MatchmakingRequest "0..*" - -> "0..*" Field : acceptableFields
  MatchmakingRequest "0..*" - -> "0..1" Match : matchedMatch

  Match "1" *- - "0..10" MatchParticipant : participants
  MatchParticipant "0..*" - -> "1" Player : player

  Match "0..*" - -> "0..1" Field : field
}
@enduml

PlantUML version 1.2020.02(Sun Mar 01 11:22:07 CET 2020)
(GPL source distribution)
Java Runtime: OpenJDK Runtime Environment
JVM: OpenJDK 64-Bit Server VM
Java Version: 21.0.10+7-Ubuntu-124.04
Operating System: Linux
Default Encoding: UTF-8
Language: en
Country: US
--></g></svg>